<?xml version="1.0" encoding="UTF-8" standalone="no"?>
<!-- Created with Inkscape (http://www.inkscape.org/) -->

<svg
   width="20mm"
   height="20mm"
   viewBox="0 0 75.590553 75.590552"
   version="1.1"
   id="svg1"
   xml:space="preserve"
   sodipodi:docname="fill pattern.svg"
   inkscape:version="1.3.2 (091e20e, 2023-11-25, custom)"
   xmlns:inkscape="http://www.inkscape.org/namespaces/inkscape"
   xmlns:sodipodi="http://sodipodi.sourceforge.net/DTD/sodipodi-0.dtd"
   xmlns:xlink="http://www.w3.org/1999/xlink"
   xmlns="http://www.w3.org/2000/svg"
   xmlns:svg="http://www.w3.org/2000/svg"><sodipodi:namedview
     id="namedview1"
     pagecolor="#ffffff"
     bordercolor="#000000"
     borderopacity="0.25"
     inkscape:showpageshadow="2"
     inkscape:pageopacity="0.0"
     inkscape:pagecheckerboard="0"
     inkscape:deskcolor="#d1d1d1"
     inkscape:document-units="mm"
     inkscape:zoom="4.024974"
     inkscape:cx="-44.348113"
     inkscape:cy="60.994183"
     inkscape:window-width="2560"
     inkscape:window-height="1494"
     inkscape:window-x="-11"
     inkscape:window-y="-11"
     inkscape:window-maximized="1"
     inkscape:current-layer="layer2" /><defs
     id="defs1"><clipPath
       clipPathUnits="userSpaceOnUse"
       id="clipPath17"><use
         x="0"
         y="0"
         xlink:href="#g16"
         id="use17" /></clipPath></defs><g
     inkscape:groupmode="layer"
     id="layer2"
     inkscape:label="Background"><g
       id="g17"
       clip-path="url(#clipPath17)"><g
         inkscape:label="Clip"
         id="g16"><rect
           style="fill:none;fill-opacity:1;stroke-width:4.47118;stroke-linecap:square"
           id="rect1"
           width="148.50096"
           height="148.50096"
           x="0"
           y="-2.8421709e-14"
           transform="scale(0.50902401)" /></g><g
         id="g1"
         transform="matrix(0.24206697,0,0,0.24206697,-0.06203608,-18.183034)"
         style="fill-opacity:1"><path
           d="M 76.787111,19.277344 C 64.492207,19.144126 51.598766,26.383461 46.046876,40.166017 38.356463,59.257451 54.462859,66.082293 43.148438,95.785159 32.595414,123.48919 24.490497,128.25298 25.072266,127.78907 c 28.165689,-13.68538 35.289992,3.06582 48.679689,3.16601 15.918427,0.11911 19.734558,-12.85139 29.509765,-13.55859 8.04152,-0.58176 23.07031,9.45312 23.07031,9.45312 0,0 -4.04005,-6.38885 -18.74804,-27.753905 C 94.062852,79.454703 110.24279,74.057719 103.9336,42.63086 100.779,26.917431 89.082015,19.410562 76.787111,19.277344 Z M 65.025392,44.363282 a 5.8632107,9.6811018 0 0 1 5.863281,9.681641 5.8632107,9.6811018 0 0 1 -5.863281,9.681641 5.8632107,9.6811018 0 0 1 -5.861328,-9.681641 5.8632107,9.6811018 0 0 1 5.861328,-9.681641 z m 19.087891,0 a 5.8632107,9.6811018 0 0 1 5.863282,9.681641 5.8632107,9.6811018 0 0 1 -5.863282,9.681641 5.8632107,9.6811018 0 0 1 -5.863281,-9.681641 5.8632107,9.6811018 0 0 1 5.863281,-9.681641 z"
           style="fill-opacity:1;stroke-width:4.47118;stroke-linecap:square"
           id="path4" /><path
           style="fill-opacity:1;stroke-width:4.47118;stroke-linecap:square"
           d="m 44.763625,75.115717 c 0,0 -10.491123,-12.599816 -15.105971,-9.001364 -4.614849,3.598451 12.377668,21.954313 12.377668,21.954313 0,0 3.771478,-3.644401 2.728303,-12.952949 z"
           id="path5" /><path
           style="fill-opacity:1;stroke-width:4.47118;stroke-linecap:square"
           d="m 104.70604,75.906654 c 0,0 12.14697,-4.300588 15.18622,-0.940362 3.03925,3.360226 -14.64457,12.98953 -14.64457,12.98953 0,0 -3.06934,-2.062527 -0.54165,-12.049168 z"
           id="path6" /></g><g
         id="g14"
         transform="matrix(0.24206697,0,0,0.24206697,-0.06203608,57.40752)"
         style="fill-opacity:1"><path
           d="M 76.787111,19.277344 C 64.492207,19.144126 51.598766,26.383461 46.046876,40.166017 38.356463,59.257451 54.462859,66.082293 43.148438,95.785159 32.595414,123.48919 24.490497,128.25298 25.072266,127.78907 c 28.165689,-13.68538 35.289992,3.06582 48.679689,3.16601 15.918427,0.11911 19.734558,-12.85139 29.509765,-13.55859 8.04152,-0.58176 23.07031,9.45312 23.07031,9.45312 0,0 -4.04005,-6.38885 -18.74804,-27.753905 C 94.062852,79.454703 110.24279,74.057719 103.9336,42.63086 100.779,26.917431 89.082015,19.410562 76.787111,19.277344 Z M 65.025392,44.363282 a 5.8632107,9.6811018 0 0 1 5.863281,9.681641 5.8632107,9.6811018 0 0 1 -5.863281,9.681641 5.8632107,9.6811018 0 0 1 -5.861328,-9.681641 5.8632107,9.6811018 0 0 1 5.861328,-9.681641 z m 19.087891,0 a 5.8632107,9.6811018 0 0 1 5.863282,9.681641 5.8632107,9.6811018 0 0 1 -5.863282,9.681641 5.8632107,9.6811018 0 0 1 -5.863281,-9.681641 5.8632107,9.6811018 0 0 1 5.863281,-9.681641 z"
           style="fill-opacity:1;stroke-width:4.47118;stroke-linecap:square"
           id="path12" /><path
           style="fill-opacity:1;stroke-width:4.47118;stroke-linecap:square"
           d="m 44.763625,75.115717 c 0,0 -10.491123,-12.599816 -15.105971,-9.001364 -4.614849,3.598451 12.377668,21.954313 12.377668,21.954313 0,0 3.771478,-3.644401 2.728303,-12.952949 z"
           id="path13" /><path
           style="fill-opacity:1;stroke-width:4.47118;stroke-linecap:square"
           d="m 104.70604,75.906654 c 0,0 12.14697,-4.300588 15.18622,-0.940362 3.03925,3.360226 -14.64457,12.98953 -14.64457,12.98953 0,0 -3.06934,-2.062527 -0.54165,-12.049168 z"
           id="path14" /></g><g
         id="g19"
         transform="matrix(0.24206697,0,0,0.24206697,-0.06203608,19.612243)"
         style="fill-opacity:1"><path
           d="M 76.787111,19.277344 C 64.492207,19.144126 51.598766,26.383461 46.046876,40.166017 38.356463,59.257451 54.462859,66.082293 43.148438,95.785159 32.595414,123.48919 24.490497,128.25298 25.072266,127.78907 c 28.165689,-13.68538 35.289992,3.06582 48.679689,3.16601 15.918427,0.11911 19.734558,-12.85139 29.509765,-13.55859 8.04152,-0.58176 23.07031,9.45312 23.07031,9.45312 0,0 -4.04005,-6.38885 -18.74804,-27.753905 C 94.062852,79.454703 110.24279,74.057719 103.9336,42.63086 100.779,26.917431 89.082015,19.410562 76.787111,19.277344 Z M 65.025392,44.363282 a 5.8632107,9.6811018 0 0 1 5.863281,9.681641 5.8632107,9.6811018 0 0 1 -5.863281,9.681641 5.8632107,9.6811018 0 0 1 -5.861328,-9.681641 5.8632107,9.6811018 0 0 1 5.861328,-9.681641 z m 19.087891,0 a 5.8632107,9.6811018 0 0 1 5.863282,9.681641 5.8632107,9.6811018 0 0 1 -5.863282,9.681641 5.8632107,9.6811018 0 0 1 -5.863281,-9.681641 5.8632107,9.6811018 0 0 1 5.863281,-9.681641 z"
           style="fill-opacity:1;stroke-width:4.47118;stroke-linecap:square"
           id="path17" /><path
           style="fill-opacity:1;stroke-width:4.47118;stroke-linecap:square"
           d="m 44.763625,75.115717 c 0,0 -10.491123,-12.599816 -15.105971,-9.001364 -4.614849,3.598451 12.377668,21.954313 12.377668,21.954313 0,0 3.771478,-3.644401 2.728303,-12.952949 z"
           id="path18" /><path
           style="fill-opacity:1;stroke-width:4.47118;stroke-linecap:square"
           d="m 104.70604,75.906654 c 0,0 12.14697,-4.300588 15.18622,-0.940362 3.03925,3.360226 -14.64457,12.98953 -14.64457,12.98953 0,0 -3.06934,-2.062527 -0.54165,-12.049168 z"
           id="path19" /></g><g
         id="g22"
         transform="matrix(0.24206697,0,0,0.24206697,37.009739,1.8715468)"
         style="fill-opacity:1"><path
           d="M 76.787111,19.277344 C 64.492207,19.144126 51.598766,26.383461 46.046876,40.166017 38.356463,59.257451 54.462859,66.082293 43.148438,95.785159 32.595414,123.48919 24.490497,128.25298 25.072266,127.78907 c 28.165689,-13.68538 35.289992,3.06582 48.679689,3.16601 15.918427,0.11911 19.734558,-12.85139 29.509765,-13.55859 8.04152,-0.58176 23.07031,9.45312 23.07031,9.45312 0,0 -4.04005,-6.38885 -18.74804,-27.753905 C 94.062852,79.454703 110.24279,74.057719 103.9336,42.63086 100.779,26.917431 89.082015,19.410562 76.787111,19.277344 Z M 65.025392,44.363282 a 5.8632107,9.6811018 0 0 1 5.863281,9.681641 5.8632107,9.6811018 0 0 1 -5.863281,9.681641 5.8632107,9.6811018 0 0 1 -5.861328,-9.681641 5.8632107,9.6811018 0 0 1 5.861328,-9.681641 z m 19.087891,0 a 5.8632107,9.6811018 0 0 1 5.863282,9.681641 5.8632107,9.6811018 0 0 1 -5.863282,9.681641 5.8632107,9.6811018 0 0 1 -5.863281,-9.681641 5.8632107,9.6811018 0 0 1 5.863281,-9.681641 z"
           style="fill-opacity:1;stroke-width:4.47118;stroke-linecap:square"
           id="path20" /><path
           style="fill-opacity:1;stroke-width:4.47118;stroke-linecap:square"
           d="m 44.763625,75.115717 c 0,0 -10.491123,-12.599816 -15.105971,-9.001364 -4.614849,3.598451 12.377668,21.954313 12.377668,21.954313 0,0 3.771478,-3.644401 2.728303,-12.952949 z"
           id="path21" /><path
           style="fill-opacity:1;stroke-width:4.47118;stroke-linecap:square"
           d="m 104.70604,75.906654 c 0,0 12.14697,-4.300588 15.18622,-0.940362 3.03925,3.360226 -14.64457,12.98953 -14.64457,12.98953 0,0 -3.06934,-2.062527 -0.54165,-12.049168 z"
           id="path22" /></g><g
         id="g28"
         transform="matrix(0.24206697,0,0,0.24206697,37.009739,39.666824)"
         style="fill-opacity:1"><path
           d="M 76.787111,19.277344 C 64.492207,19.144126 51.598766,26.383461 46.046876,40.166017 38.356463,59.257451 54.462859,66.082293 43.148438,95.785159 32.595414,123.48919 24.490497,128.25298 25.072266,127.78907 c 28.165689,-13.68538 35.289992,3.06582 48.679689,3.16601 15.918427,0.11911 19.734558,-12.85139 29.509765,-13.55859 8.04152,-0.58176 23.07031,9.45312 23.07031,9.45312 0,0 -4.04005,-6.38885 -18.74804,-27.753905 C 94.062852,79.454703 110.24279,74.057719 103.9336,42.63086 100.779,26.917431 89.082015,19.410562 76.787111,19.277344 Z M 65.025392,44.363282 a 5.8632107,9.6811018 0 0 1 5.863281,9.681641 5.8632107,9.6811018 0 0 1 -5.863281,9.681641 5.8632107,9.6811018 0 0 1 -5.861328,-9.681641 5.8632107,9.6811018 0 0 1 5.861328,-9.681641 z m 19.087891,0 a 5.8632107,9.6811018 0 0 1 5.863282,9.681641 5.8632107,9.6811018 0 0 1 -5.863282,9.681641 5.8632107,9.6811018 0 0 1 -5.863281,-9.681641 5.8632107,9.6811018 0 0 1 5.863281,-9.681641 z"
           style="fill-opacity:1;stroke-width:4.47118;stroke-linecap:square"
           id="path26" /><path
           style="fill-opacity:1;stroke-width:4.47118;stroke-linecap:square"
           d="m 44.763625,75.115717 c 0,0 -10.491123,-12.599816 -15.105971,-9.001364 -4.614849,3.598451 12.377668,21.954313 12.377668,21.954313 0,0 3.771478,-3.644401 2.728303,-12.952949 z"
           id="path27" /><path
           style="fill-opacity:1;stroke-width:4.47118;stroke-linecap:square"
           d="m 104.70604,75.906654 c 0,0 12.14697,-4.300588 15.18622,-0.940362 3.03925,3.360226 -14.64457,12.98953 -14.64457,12.98953 0,0 -3.06934,-2.062527 -0.54165,-12.049168 z"
           id="path28" /></g></g></g></svg>
